<svg xmlns="http://www.w3.org/2000/svg" width="40" height="40" viewBox="0 0 40 40"><rect x="0" y="0" width="10" height="10" fill="#f8fafc"/>
<rect x="10" y="0" width="10" height="10" fill="#e5e7eb"/>
<rect x="20" y="0" width="10" height="10" fill="#f8fafc"/>
<rect x="30" y="0" width="10" height="10" fill="#e5e7eb"/>
<rect x="0" y="10" width="10" height="10" fill="#e5e7eb"/>
<rect x="10" y="10" width="10" height="10" fill="#f8fafc"/>
<rect x="20" y="10" width="10" height="10" fill="#e5e7eb"/>
<rect x="30" y="10" width="10" height="10" fill="#f8fafc"/>
<rect x="0" y="20" width="10" height="10" fill="#f8fafc"/>
<rect x="10" y="20" width="10" height="10" fill="#e5e7eb"/>
<rect x="20" y="20" width="10" height="10" fill="#f8fafc"/>
<rect x="30" y="20" width="10" height="10" fill="#e5e7eb"/>
<rect x="0" y="30" width="10" height="10" fill="#e5e7eb"/>
<rect x="10" y="30" width="10" height="10" fill="#f8fafc"/>
<rect x="20" y="30" width="10" height="10" fill="#e5e7eb"/>
<rect x="30" y="30" width="10" height="10" fill="#f8fafc"/></svg>